<svg width="10" height="11" viewBox="0 0 10 11" fill="none" xmlns="http://www.w3.org/2000/svg">
<path d="M9.26367 8.55859C9.26367 8.75391 9.23047 9.0625 9.16406 9.48438C9.08594 9.98828 8.80078 10.2402 8.30859 10.2402C8.03516 10.2402 7.72656 10.0859 7.38281 9.77734C5.87891 8.42188 4.18164 6.52148 2.29102 4.07617C2.26758 5.0918 2.25586 5.71484 2.25586 5.94531C2.25586 6.25391 2.26172 6.71875 2.27344 7.33984C2.28906 7.96094 2.29688 8.42578 2.29688 8.73438C2.29688 9.88672 2.01562 10.4629 1.45312 10.4629C1.16797 10.4629 0.939453 10.375 0.767578 10.1992C0.615234 10.043 0.539062 9.85352 0.539062 9.63086C0.539062 9.47461 0.550781 9.23828 0.574219 8.92188C0.601562 8.60547 0.615234 8.36914 0.615234 8.21289C0.615234 7.98242 0.623047 7.63672 0.638672 7.17578C0.654297 6.71484 0.662109 6.36914 0.662109 6.13867C0.662109 5.89258 0.65625 5.52148 0.644531 5.02539C0.632812 4.5293 0.626953 4.1582 0.626953 3.91211C0.626953 3.67773 0.603516 3.32812 0.556641 2.86328C0.509766 2.39844 0.486328 2.04883 0.486328 1.81445C0.486328 1.58008 0.585938 1.37109 0.785156 1.1875C0.988281 1.00391 1.21875 0.912109 1.47656 0.912109C1.76562 0.912109 2.08594 1.16211 2.4375 1.66211C4.21094 4.19336 5.96094 6.25781 7.6875 7.85547C7.69141 7.73047 7.69336 7.43359 7.69336 6.96484C7.69336 5.03906 7.67383 3.74023 7.63477 3.06836C7.62695 2.95508 7.60156 2.74414 7.55859 2.43555C7.51953 2.16211 7.5 1.94727 7.5 1.79102C7.5 1.25195 7.78516 0.982422 8.35547 0.982422C8.99219 0.982422 9.31055 1.96484 9.31055 3.92969C9.31055 3.97266 9.30664 4.28125 9.29883 4.85547C9.27539 6.83984 9.26367 8.07422 9.26367 8.55859Z" fill="#42A642"/>
</svg>
